<?xml version="1.0" encoding="utf-8"?>
<!-- Generator: Adobe Illustrator 22.0.1, SVG Export Plug-In . SVG Version: 6.00 Build 0)  -->
<svg version="1.1" id="Layer_1" xmlns="http://www.w3.org/2000/svg" xmlns:xlink="http://www.w3.org/1999/xlink" x="0px" y="0px"
	 viewBox="0 0 100 100" style="enable-background:new 0 0 100 100;" xml:space="preserve">
<style type="text/css">
	.st0{fill:#797A7E;}
	.st1{fill:url(#SVGID_1_);}
	.st2{fill:#FFFFFF;}
	.st3{fill:#797A7E;stroke:#FFFFFF;stroke-width:5;}
</style>
<g>
	<path class="st0" d="M83.6,11.1L70.4,5.3C64,2.5,57,1.1,50,1.1c-7,0-14,1.4-20.4,4.3l-13.1,5.7c-5.4,2.3-8.8,7.6-8.8,13.5v30.7
		c0,10.2,4.9,20,13.1,26.1l19.2,14.3c2.9,2.2,6.5,3.4,10.1,3.3c3.7,0,7.2-1.2,10.1-3.3l19.2-14.3c8.2-6.1,13.1-15.9,13.1-26.2V24.5
		C92.4,18.7,88.9,13.4,83.6,11.1L83.6,11.1z M45.6,14.6l-0.2-0.5C45.5,14.2,45.6,14.4,45.6,14.6L45.6,14.6z M45.5,14.8
		C45.5,14.8,45.4,14.9,45.5,14.8c-0.1,0.1-0.2,0.1-0.2,0.1L45,14.1c0,0,0,0,0.1-0.1c0,0,0.1,0,0.1,0L45.5,14.8z M45.1,14.8
		c-0.2-0.1-0.3-0.3-0.2-0.5L45.1,14.8z"/>
	
		<linearGradient id="SVGID_1_" gradientUnits="userSpaceOnUse" x1="-252.2912" y1="443.1201" x2="-252.3239" y2="442.3096" gradientTransform="matrix(77.47 0 0 -90.4744 19596.0059 40101.9766)">
		<stop  offset="0" style="stop-color:#FFFFFF"/>
		<stop  offset="1" style="stop-color:#B9C6D0"/>
	</linearGradient>
	<path class="st1" d="M88.7,55.2V24.5c0-4.4-2.6-8.3-6.6-10L69,8.7C56.9,3.4,43.1,3.4,31,8.7l-13.1,5.7c-4,1.7-6.6,5.7-6.6,10.1
		v30.7c0,9.1,4.3,17.7,11.6,23.2l19.2,14.3c4.7,3.5,11.1,3.5,15.8,0l19.2-14.3C84.4,72.9,88.7,64.3,88.7,55.2z"/>
	<path class="st2" d="M43.8,11.6l0.3-0.1c1.6-0.7,3.5,0.1,4.2,1.7c0.7,1.6-0.1,3.5-1.7,4.2l-0.3,0.1c-1.6,0.7-3.5-0.1-4.2-1.7
		C41.4,14.2,42.2,12.3,43.8,11.6z M22.5,27.6c-1.8,0-3.2-1.5-3.2-3.2c0-1.3,0.8-2.4,1.9-2.9l12.9-5.6c1.6-0.7,3.5,0,4.2,1.7
		s0,3.5-1.7,4.2l-12.9,5.6C23.3,27.5,22.9,27.6,22.5,27.6z"/>
	<path class="st3" d="M58.9,44.8l6.7,6.7c2.3,2.3,2.3,6.1,0,8.4c-2.3,2.3-6.1,2.3-8.4,0c0,0,0,0,0,0l-6.7-6.7L43.8,60
		c-2.3,2.3-6.1,2.3-8.4,0c-2.3-2.3-2.3-6.1,0-8.4c0,0,0,0,0,0l6.7-6.7l-6.7-6.7c-2.3-2.3-2.3-6.1,0-8.4s6.1-2.3,8.4,0c0,0,0,0,0,0
		l6.7,6.7l6.7-6.7c2.3-2.3,6.1-2.3,8.4,0c2.3,2.3,2.3,6.1,0,8.4c0,0,0,0,0,0L58.9,44.8z"/>
</g>
</svg>
